<?xml version="1.0" encoding="UTF-8"?>
<svg viewBox="0 0 320 80" version="1.1" xmlns="http://www.w3.org/2000/svg" xmlns:xlink="http://www.w3.org/1999/xlink">
    <!-- Generator: Sketch 46.2 (44496) - http://www.bohemiancoding.com/sketch -->
    <title>logo-white</title>
    <desc>Created with Sketch.</desc>
    <defs>
        <path d="M316,8 L306,9 L306,64.0055385 L316,64 L316,8 Z M296,8 L286,9 L286,64.0055385 L296,64 L296,8 Z M169.986296,49.875946 L169.986296,17.3924498 L169.1123,17.3924498 L153.380383,31.7405411 L153.380383,32 L160,32 L160,52.9349299 C160,60.6552227 164.305325,64.733868 170.787458,64.733868 C175.812932,64.733868 179.745911,62.3303806 182.44073,58.0332365 L182.44073,57.5234058 C180.765572,58.1060694 179.308913,58.3974013 177.779421,58.3974013 C172.899614,58.3974013 169.986296,55.1927514 169.986296,49.875946 Z M20,49.875946 L20,17.3924498 L19.5411166,17.3924498 L4,31.7405411 L4,32 L10,32 L10,52.9349299 C10,60.6552227 14.7341418,64.733868 21.2162745,64.733868 C26.1689151,64.733868 30.1018945,62.3303806 32.8695466,58.0332365 L32.8695466,57.5234058 C31.1943888,58.1060694 29.6648968,58.3974013 28.1354048,58.3974013 C23.3284301,58.3974013 20,55.1927514 20,49.875946 Z M136,28.0260606 L136,64 L146,64 L146,26.9335664 L136,28.0260606 Z M50,26.9335664 L40,28.0988936 L40,64.0055385 L50,64 L50,26.9335664 Z M257.385837,48.1279551 C258.769663,48.5649529 260.517654,48.8562847 262.265645,48.8562847 C270.277269,48.8562847 276.977901,43.4666463 276.977901,37.0573466 C276.977901,31.4492093 271.661095,27.0063993 263.940803,26.9335664 L263.940803,27.443397 C266.417123,28.7543901 266.999786,31.886207 266.999786,34.6538592 C266.999786,41.7914884 262.556976,47.1811268 257.385837,47.6181245 L257.385837,48.1279551 Z M82.5867543,48.1279551 C83.9705803,48.5649529 85.6457382,48.8562847 87.466562,48.8562847 C95.4781866,48.8562847 102.105985,43.4666463 102.105985,37.0573466 C102.105985,31.4492093 96.7891797,27.0063993 89.0688869,26.9335664 L89.0688869,27.443397 C91.5452072,28.7543901 92.1278708,31.886207 92.1278708,34.6538592 C92.1278708,41.7914884 87.6850608,47.1811268 82.5867543,47.6181245 L82.5867543,48.1279551 Z M261.90148,26.9335664 C251.195036,26.9335664 243.256244,35.0180239 243.256244,46.0886325 C243.256244,57.1592411 250.830871,64.733868 261.391649,64.733868 C268.456445,64.733868 274.210249,61.1650534 277.050734,54.8285866 L277.050734,54.1730901 C274.865745,56.1395798 271.224098,57.1592411 267.58245,57.1592411 C259.279494,57.1592411 254.108354,51.9152686 254.108354,43.1024815 C254.108354,36.6203489 256.948839,29.7740515 261.90148,27.443397 L261.90148,26.9335664 Z M87.1023972,26.9335664 C76.3959534,26.9335664 68.3843288,35.0180239 68.3843288,46.0886325 C68.3843288,57.1592411 75.9589557,64.733868 86.5197336,64.733868 C93.6573628,64.733868 99.411166,61.1650534 102.178818,54.8285866 L102.178818,54.1730901 C99.9938296,56.1395798 96.352182,57.1592411 92.7105345,57.1592411 C84.480411,57.1592411 79.2364385,51.8424357 79.2364385,43.1024815 C79.2364385,36.6203489 82.1497565,29.7740515 87.1023972,27.443397 L87.1023972,26.9335664 Z M123.009042,64.733868 C127.961683,64.733868 131.676163,61.747717 134.006818,57.1592411 L134.006818,56.7222434 C132.768658,57.3777399 131.239166,57.8147376 129.636841,57.8147376 C123.95587,57.7419047 119.804392,52.789264 119.804392,45.2146371 C119.804392,35.3093557 125.849527,28.6087242 133.788319,28.6087242 L133.788319,28.0260606 C132.113161,27.2977311 129.928172,26.9335664 127.670351,26.9335664 C116.963907,26.9335664 108.806617,35.4550217 108.806617,47.1811268 C108.806617,57.232074 114.56042,64.733868 123.009042,64.733868 Z M173,32 L183,32 L183,28.0260606 L173,28.0260606 L173,32 Z M23,32.0988936 L33,32.0988936 L33,28 L23,28 L23,32.0988936 Z M220,28.0260606 L208,28.0260606 L223.372849,64.5153691 L224.101178,64.5153691 L229.709316,52.789264 L220,28.0260606 Z M199,28.0260606 L188,28.0260606 L203.052455,64.5153691 L203.780785,64.5153691 L209.388922,52.789264 L199,28.0260606 Z M230,28.0260606 C231.820824,31.5948752 233.350963,38.2226738 233.350963,41.7186554 L233.860794,41.7186554 L241,28 L230,28.0260606 Z M52,38 C54.2578215,35.6693456 57.7507179,35.0180239 60.8825348,35.0180239 C62.9218575,35.0180239 64.0531716,35.4550217 65,35.8920194 L65,27.443397 C64.4173364,27.2248982 63.577354,26.9335664 62.4848597,26.9335664 C56.7310566,26.9335664 53.2381602,30.8623708 52,37.6358352 L52,38 Z" id="path-1"></path>
        <filter x="-1.1%" y="-4.4%" width="102.2%" height="112.3%" filterUnits="objectBoundingBox" id="filter-2">
            <feOffset dx="0" dy="1" in="SourceAlpha" result="shadowOffsetOuter1"></feOffset>
            <feGaussianBlur stdDeviation="1" in="shadowOffsetOuter1" result="shadowBlurOuter1"></feGaussianBlur>
            <feColorMatrix values="0 0 0 0 0   0 0 0 0 0   0 0 0 0 0  0 0 0 0.2 0" type="matrix" in="shadowBlurOuter1"></feColorMatrix>
        </filter>
    </defs>
    <g id="May-2017" stroke="none" stroke-width="1" fill="none" fill-rule="evenodd">
        <g id="Global---desktop" transform="translate(-48.000000, -32.000000)">
            <g id="Logo" transform="translate(48.000000, 32.000000)">
                <rect id="Area" x="0" y="0" width="320" height="80"></rect>
                <g>
                    <use fill="black" fill-opacity="1" filter="url(#filter-2)" xlink:href="#path-1"></use>
                    <use fill="#FFFFFF" fill-rule="evenodd" xlink:href="#path-1"></use>
                </g>
            </g>
        </g>
    </g>
</svg>
