{
  "accessors": [
    {
      "bufferView": 2,
      "componentType": 5126,
      "count": 2527,
      "max": [
        9.483661651611328,
        13.240615844726563,
        11.738354682922363
      ],
      "min": [
        -9.483659744262695,
        -13.240615844726563,
        -11.738354682922363
      ],
      "type": "VEC3"
    },
    {
      "bufferView": 2,
      "byteOffset": 30324,
      "componentType": 5126,
      "count": 2527,
      "max": [
        0.9998787641525269,
        0.9997438192367554,
        0.9999685883522034
      ],
      "min": [
        -0.9998773336410522,
        -0.9997334480285645,
        -0.9999632835388184
      ],
      "type": "VEC3"
    },
    {
      "bufferView": 1,
      "componentType": 5126,
      "count": 2527,
      "max": [
        0.9994029998779297,
        0.9799119830131531
      ],
      "min": [
        -0.3883189857006073,
        0.20910699665546417
      ],
      "type": "VEC2"
    },
    {
      "bufferView": 1,
      "byteOffset": 20216,
      "componentType": 5126,
      "count": 2527,
      "max": [
        0.9994029998779297,
        0.9799119830131531
      ],
      "min": [
        -0.3883189857006073,
        0.20910699665546417
      ],
      "type": "VEC2"
    },
    {
      "bufferView": 1,
      "byteOffset": 40432,
      "componentType": 5126,
      "count": 2527,
      "max": [
        0.9994029998779297,
        0.9799119830131531
      ],
      "min": [
        -0.3883189857006073,
        0.20910699665546417
      ],
      "type": "VEC2"
    },
    {
      "bufferView": 0,
      "componentType": 5125,
      "count": 14844,
      "type": "SCALAR"
    }
  ],
  "asset": {
    "extras": {
      "author": "shimtimultimedia (https://sketchfab.com/shimtimultimedia)",
      "license": "CC-BY-4.0 (http://creativecommons.org/licenses/by/4.0/)",
      "source": "https://sketchfab.com/3d-models/nubian-wig-cdc2aa02d18f40cd9fbbe2762554520f",
      "title": "Nubian Wig"
    },
    "generator": "Sketchfab-12.67.0",
    "version": "2.0"
  },
  "bufferViews": [
    {
      "buffer": 0,
      "byteLength": 59376,
      "name": "floatBufferViews",
      "target": 34963
    },
    {
      "buffer": 0,
      "byteLength": 60648,
      "byteOffset": 59376,
      "byteStride": 8,
      "name": "floatBufferViews",
      "target": 34962
    },
    {
      "buffer": 0,
      "byteLength": 60648,
      "byteOffset": 120024,
      "byteStride": 12,
      "name": "floatBufferViews",
      "target": 34962
    }
  ],
  "buffers": [
    {
      "byteLength": 180672,
      "uri": "scene.bin"
    }
  ],
  "extensionsRequired": [
    "KHR_materials_pbrSpecularGlossiness"
  ],
  "extensionsUsed": [
    "KHR_materials_pbrSpecularGlossiness"
  ],
  "images": [
    {
      "uri": "textures/NbtyEgyptOKHairM_1_HairB_diffuse.png"
    },
    {
      "uri": "textures/NbtyEgyptOKHairM_1_HairB_specularGlossiness.png"
    }
  ],
  "materials": [
    {
      "doubleSided": true,
      "extensions": {
        "KHR_materials_pbrSpecularGlossiness": {
          "diffuseFactor": [
            1.0,
            1.0,
            1.0,
            1.0
          ],
          "diffuseTexture": {
            "index": 0
          },
          "glossinessFactor": 0.18867924528301888,
          "specularFactor": [
            0.050314465408805034,
            0.050314465408805034,
            0.050314465408805034
          ],
          "specularGlossinessTexture": {
            "index": 1
          }
        }
      },
      "name": "NbtyEgyptOKHairM_1_HairB"
    }
  ],
  "meshes": [
    {
      "name": "NbtyEgyptOKHairM_1_NbtyEgyptOKHairM_1_HairB_0",
      "primitives": [
        {
          "attributes": {
            "NORMAL": 1,
            "POSITION": 0,
            "TEXCOORD_0": 2,
            "TEXCOORD_1": 3,
            "TEXCOORD_2": 4
          },
          "indices": 5,
          "material": 0,
          "mode": 4
        }
      ]
    }
  ],
  "nodes": [
    {
      "children": [
        1
      ],
      "matrix": [
        0.008281244896352291,
        0.0,
        0.0,
        0.0,
        0.0,
        1.8388057512979763e-18,
        -0.008281244896352291,
        0.0,
        0.0,
        0.008281244896352291,
        1.8388057512979763e-18,
        0.0,
        0.0,
        0.0,
        0.0,
        1.0
      ],
      "name": "Sketchfab_model"
    },
    {
      "children": [
        2
      ],
      "matrix": [
        1.0,
        0.0,
        0.0,
        0.0,
        0.0,
        0.0,
        1.0,
        0.0,
        0.0,
        -1.0,
        0.0,
        0.0,
        0.0,
        0.0,
        0.0,
        1.0
      ],
      "name": "041e28b4d86641889fae399b3502e40b.fbx"
    },
    {
      "children": [
        3
      ],
      "name": "RootNode"
    },
    {
      "children": [
        4
      ],
      "matrix": [
        1.0,
        0.0,
        0.0,
        0.0,
        0.0,
        1.0,
        0.0,
        0.0,
        0.0,
        0.0,
        1.0,
        0.0,
        0.05544034019112587,
        187.26425170898438,
        -3.203728675842285,
        1.0
      ],
      "name": "NbtyEgyptOKHairM_1"
    },
    {
      "mesh": 0,
      "name": "NbtyEgyptOKHairM_1_NbtyEgyptOKHairM_1_HairB_0"
    }
  ],
  "samplers": [
    {
      "magFilter": 9729,
      "minFilter": 9987,
      "wrapS": 10497,
      "wrapT": 10497
    }
  ],
  "scene": 0,
  "scenes": [
    {
      "name": "Sketchfab_Scene",
      "nodes": [
        0
      ]
    }
  ],
  "textures": [
    {
      "sampler": 0,
      "source": 0
    },
    {
      "sampler": 0,
      "source": 1
    }
  ]
}
